<?xml version="1.0" encoding="UTF-8"?>
<svg width="93px" height="78px" viewBox="0 0 93 78" version="1.1" xmlns="http://www.w3.org/2000/svg" xmlns:xlink="http://www.w3.org/1999/xlink">
    <title>Group 2</title>
    <g id="Symbols" stroke="none" stroke-width="1" fill="none" fill-rule="evenodd">
        <g id="Menu-Uni-Colour" transform="translate(-32.000000, -17.000000)" fill-rule="nonzero">
            <g id="Group-2" transform="translate(32.640000, 17.250000)">
                <path d="M4.27036007,61.5345003 C2.27703997,61.5345003 0.886,60.2619998 0.886,58.1394998 L0.886,52.792 L2.08678003,52.792 L2.08678003,58.1394998 C2.08678003,59.80075 3.13131984,60.42575 4.27036007,60.42575 C5.40057977,60.42575 6.48921999,59.7894999 6.48921999,58.1394998 L6.48921999,52.792 L7.66480001,52.792 L7.66480001,58.1394998 C7.66480001,60.1920001 6.20445999,61.5345003 4.27036007,61.5345003" id="Fill-1" fill="#696962"></path>
                <path d="M15.8713002,61.3907501 L11.32396,55.1632499 C11.2928799,55.1165833 11.2416399,55.0374166 11.17024,54.92575 C11.18452,55.0515833 11.19166,55.1461667 11.19166,55.2095 L11.19166,61.3907501 L10.006,61.3907501 L10.006,52.792 L11.01652,52.792 L15.5046396,58.90825 C15.55084,58.9690833 15.6016602,59.0519999 15.6571002,59.1569998 C15.6428198,59.0369999 15.6356797,58.9419999 15.6356797,58.8719999 L15.6356797,52.792 L16.8200798,52.792 L16.8200798,61.3907501 L15.8713002,61.3907501 Z" id="Fill-3" fill="#696962"></path>
                <path d="M26.0030798,61.3907501 L25.2659802,61.3907501 L22.213,52.792 L23.3646399,52.792 L25.5583,58.9995 C25.5851801,59.0736666 25.61038,59.1728333 25.6338999,59.2970001 C25.6582599,59.1728333 25.6813599,59.0736666 25.7032,58.9995 L27.9119799,52.792 L29.04094,52.792 L26.0030798,61.3907501 Z" id="Fill-5" fill="#696962"></path>
                <path d="M30.848,61.3907501 L30.848,52.792 L35.6914401,52.792 L35.6914401,53.902 L32.0324,53.902 L32.0324,56.64575 L35.6045002,56.64575 L35.6045002,57.752 L32.0324,57.752 L32.0324,60.28325 L35.9157199,60.28325 L35.9157199,61.3907501 L30.848,61.3907501 Z" id="Fill-7" fill="#696962"></path>
                <path d="M19.221,61.3897501 L20.41044,61.3897501 L20.41044,52.791 L19.221,52.791 L19.221,61.3897501 Z" id="Fill-9" fill="#696962"></path>
                <path d="M40.8344999,52.792 C42.44604,52.792 43.5170401,53.9357501 43.5170401,55.3270001 C43.5170401,56.7032499 42.33894,57.7869999 41.0449198,57.7869999 L44.2390202,61.3907501 L42.7182001,61.3907501 L39.2154,57.377 L39.2154,61.3907501 L38.031,61.3907501 L38.031,52.792 L40.8344999,52.792 Z M40.6186399,53.902 L39.215,53.902 L39.215,56.8595 L40.5921801,56.8595 C41.66318,56.8595 42.2818399,56.1982501 42.2818399,55.2795001 C42.2818399,54.69325 41.74886,53.902 40.6186399,53.902 Z" id="Fill-11" fill="#696962"></path>
                <path d="M48.0759401,61.5344997 C47.1989799,61.5344997 46.32958,61.30825 45.532,60.6644998 L46.2124,59.7545 C46.6786,60.1670003 47.42326,60.39075 48.01798,60.39075 C48.8962001,60.39075 49.5010001,59.9994998 49.5010001,59.1907497 C49.5010001,58.4594999 48.8231201,58.0595003 48.052,57.6670003 C46.81468,57.0444999 45.5572,56.5045 45.5572,54.8657501 C45.5572,53.59325 46.50598,52.652 48.0620798,52.652 C48.9314799,52.652 49.72654,52.912 50.40316,53.38325 L49.7618203,54.3495 C49.2238001,53.9595 48.7739798,53.80325 48.052,53.80325 C47.3728599,53.80325 46.8045999,54.1457501 46.8045999,54.79575 C46.8045999,55.727 47.6361999,56.0407501 48.7046799,56.5745001 C49.6912603,57.0569997 50.7345404,57.6807495 50.7345404,59.12075 C50.7345404,60.6644998 49.5236799,61.5344997 48.0759401,61.5344997" id="Fill-12" fill="#696962"></path>
                <path d="M52.683,61.3897501 L53.86992,61.3897501 L53.86992,52.791 L52.683,52.791 L52.683,61.3897501 Z" id="Fill-13" fill="#696962"></path>
                <path d="M58.78596,53.902 L58.78596,61.3907501 L57.60156,61.3907501 L57.60156,53.902 L55.83,53.902 L55.83,52.792 L60.6255599,52.792 L60.6255599,53.902 L58.78596,53.902 Z" id="Fill-14" fill="#696962"></path>
                <path d="M67.4326999,52.792 L67.4326999,53.902 L63.7724,53.902 L63.7724,56.64575 L67.3482801,56.64575 L67.3482801,57.752 L63.7724,57.752 L63.7724,60.28325 L67.65824,60.28325 L67.65824,61.3907501 L62.588,61.3907501 L62.588,52.792 L67.4326999,52.792 Z M66.49406,50.378 L65.3902999,52.1105001 L64.25,52.1105001 L65.35628,50.378 L66.49406,50.378 Z" id="Fill-15" fill="#696962"></path>
                <path d="M76.77626,52.792 C79.7359999,52.792 81.4055002,54.72575 81.4055002,57.0707499 C81.4055002,59.4607498 79.6377199,61.3907501 76.6741999,61.3907501 L74.57,61.3907501 L74.57,52.792 L76.77626,52.792 Z M76.7524,53.854 L75.757,53.854 L75.757,60.3315 L76.5293799,60.3315 C79.0922201,60.3315 80.1745601,58.6814999 80.1745601,57.0815 C80.1745601,55.3265 78.83266,53.854 76.7524,53.854 Z" id="Fill-16" fill="#696962"></path>
                <path d="M86.7763601,61.5345003 C84.78304,61.5345003 83.392,60.2619998 83.392,58.1394998 L83.392,52.792 L84.5902599,52.792 L84.5902599,58.1394998 C84.5902599,59.80075 85.6373198,60.42575 86.7763601,60.42575 C87.90532,60.42575 88.99522,59.7894999 88.99522,58.1394998 L88.99522,52.792 L90.1720598,52.792 L90.1720598,58.1394998 C90.1720598,60.1920001 88.7117203,61.5345003 86.7763601,61.5345003" id="Fill-17" fill="#696962"></path>
                <path d="M0,47.0524999 L91.0664978,47.0524999 L91.0664978,45.815 L0,45.815 L0,47.0524999 Z" id="Fill-18" fill="#696962"></path>
                <path d="M0.926,76.3377501 L0.926,67.739 L2.11417997,67.739 L2.11417997,75.2314998 L5.40403974,75.2314998 L5.40403974,76.3377501 L0.926,76.3377501 Z" id="Fill-19" fill="#696962"></path>
                <path d="M11.0338799,76.4787505 C9.03678004,76.4787505 7.647,75.2099998 7.647,73.0887496 L7.647,67.74 L8.84778003,67.74 L8.84778003,73.0887496 C8.84778003,74.7512505 9.89106004,75.37375 11.0338799,75.37375 C12.1615798,75.37375 13.2527396,74.74 13.2527396,73.0887496 L13.2527396,67.74 L14.4270598,67.74 L14.4270598,73.0887496 C14.4270598,75.1400001 12.9679801,76.4787505 11.0338799,76.4787505" id="Fill-20" fill="#696962"></path>
                <path d="M22.7293398,76.3377501 L20.7952401,73.404 C20.70116,73.2639999 20.57768,73.0644166 20.4248001,72.8052498 C20.27528,73.0552502 20.14424,73.2631669 20.0316801,73.4290001 L18.1089201,76.3377501 L16.733,76.3377501 L19.7393598,71.8015 L17.0795,67.739 L18.5373201,67.739 L20.20052,70.28275 C20.28704,70.4169168 20.37734,70.5660833 20.47142,70.7302498 C20.5596199,70.5660833 20.65538,70.4090001 20.7587001,70.259 L22.4344999,67.739 L23.7953002,67.739 L21.1493003,71.7427498 L24.1644795,76.3377501 L22.7293398,76.3377501 Z" id="Fill-21" fill="#696962"></path>
                <path d="M26.505,76.3377501 L26.505,67.739 L31.3509601,67.739 L31.3509601,68.84525 L27.6919199,68.84525 L27.6919199,71.5889999 L31.2677997,71.5889999 L31.2677997,72.699 L27.6919199,72.699 L27.6919199,75.2314998 L31.57524,75.2314998 L31.57524,76.3377501 L26.505,76.3377501 Z" id="Fill-22" fill="#696962"></path>
                <path d="M41.8932996,76.3377501 L41.8932996,70.0127501 C41.8932996,69.9085834 41.9021198,69.7981667 41.9197602,69.6815 C41.8693598,69.7748333 41.8286198,69.84275 41.7975402,69.88525 L39.0784602,73.5252501 L38.6034398,73.5252501 L35.8642,69.979 C35.83144,69.9389999 35.79196,69.8764999 35.74576,69.7915 C35.76088,69.8998333 35.76844,70.0048333 35.76844,70.1065001 L35.76844,76.3377501 L34.579,76.3377501 L34.579,67.739 L35.58952,67.739 L38.8554401,71.9439999 L42.0243397,67.739 L43.0814805,67.739 L43.0814805,76.3377501 L41.8932996,76.3377501 Z" id="Fill-23" fill="#696962"></path>
                <path d="M48.6622,67.74 C50.1376598,67.74 51.1822,68.6375 51.1822,69.98 C51.1822,70.9675 50.7412,71.6012499 50.1868,71.9562499 C50.8583799,72.1587503 51.6420999,72.9487498 51.6420999,74.0074999 C51.6420999,75.0774996 50.8835798,76.3387501 48.9734199,76.3387501 L46.369,76.3387501 L46.369,67.74 L48.6622,67.74 Z M48.9586,72.675 L47.56,72.675 L47.56,75.2324999 L48.84142,75.2324999 C49.91116,75.2324999 50.4063399,74.7124999 50.4063399,73.91375 C50.4063399,73.17125 49.83808,72.675 48.9586,72.675 Z M48.46216,68.846 L47.56,68.846 L47.56,71.5697499 L48.35632,71.5697499 C49.6490799,71.5697499 49.94392,70.7922501 49.94392,70.071 C49.94392,69.30475 49.4336199,68.846 48.46216,68.846 Z" id="Fill-24" fill="#696962"></path>
                <path d="M58.0300999,67.6 C60.71768,67.6 62.5207396,69.5425 62.5207396,72.0375 C62.5207396,74.5375 60.5400201,76.4787498 58.09058,76.4787498 C55.6109001,76.4787498 53.639,74.6062499 53.639,72.0175 C53.639,69.5075 55.5277399,67.6 58.0300999,67.6 Z M58.0441601,68.754 C56.16676,68.754 54.874,70.1315001 54.874,72.0177501 C54.874,73.9265001 56.3822201,75.3277495 58.0907799,75.3277495 C59.7905201,75.3277495 61.2874002,74.0539997 61.2874002,71.99275 C61.2874002,70.1315001 59.9580998,68.754 58.0441601,68.754 Z" id="Fill-25" fill="#696962"></path>
                <path d="M68.2443601,76.4787505 C66.24978,76.4787505 64.86,75.2099998 64.86,73.0887496 L64.86,67.74 L66.05952,67.74 L66.05952,73.0887496 C66.05952,74.7512505 67.10406,75.37375 68.2443601,75.37375 C69.37332,75.37375 70.4669999,74.74 70.4669999,73.0887496 L70.4669999,67.74 L71.6425799,67.74 L71.6425799,73.0887496 C71.6425799,75.1400001 70.1797203,76.4787505 68.2443601,76.4787505" id="Fill-26" fill="#696962"></path>
                <path d="M77.14276,67.739 C78.7568199,67.739 79.8227803,68.88525 79.8227803,70.2740001 C79.8227803,71.6527502 78.6484601,72.7339999 77.3531799,72.7339999 L80.5497996,76.3377501 L79.0277197,76.3377501 L75.5286999,72.3215 L75.5286999,76.3377501 L74.338,76.3377501 L74.338,67.739 L77.14276,67.739 Z M76.9263399,68.845 L75.529,68.845 L75.529,71.80125 L76.9024,71.80125 C77.97214,71.80125 78.5908,71.14625 78.5908,70.2274999 C78.5908,69.63625 78.0553002,68.845 76.9263399,68.845 Z" id="Fill-27" fill="#696962"></path>
                <path d="M86.3518401,76.4787498 C84.1581801,76.4787498 81.962,74.7012502 81.962,72.0375 C81.962,69.37625 83.9805199,67.6 86.3669602,67.6 C87.7680799,67.6 88.7294599,68.04875 89.5610601,68.765 L88.8378197,69.6362499 C88.0868598,69.025 87.3535396,68.7537499 86.3442799,68.7537499 C84.59792,68.7537499 83.1955399,70.0575 83.1955399,72.0512501 C83.1955399,73.7937499 84.6331998,75.3275 86.39216,75.3275 C87.6383,75.3275 88.6349598,74.6300002 88.9436599,73.5937501 L86.3279,73.5937501 L86.3279,72.4899999 L90.32084,72.4899999 C90.32084,74.8224998 88.4434401,76.4787498 86.3518401,76.4787498" id="Fill-28" fill="#696962"></path>
                <path d="M67.2796601,1.82124996 C66.0007599,1.82124996 64.88314,1.10250008 64.32874,-3.55271368e-15 L63.952,-3.55271368e-15 L63.952,36.8012505 C63.952,38.6150017 65.4312401,40.0875015 67.27588,40.0875015 C69.1028799,40.0875015 70.5871595,38.6150017 70.5871595,36.8012505 L70.5871595,-3.55271368e-15 L70.2154602,-3.55271368e-15 C69.6610602,1.10250008 68.5572999,1.82124996 67.2796601,1.82124996" id="Fill-29" fill="#28A1D7"></path>
                <path d="M43.4288001,9.95475002 C42.15116,9.95475002 41.04488,9.24225005 40.49426,8.136 L40.115,8.136 L40.115,36.8022502 C40.115,38.6147483 41.5980201,40.0884994 43.4288001,40.0884994 C45.2532799,40.0884994 46.73756,38.6147483 46.73756,36.8022502 L46.73756,8.136 L46.3645999,8.136 C45.8114598,9.24225005 44.7026598,9.95475002 43.4288001,9.95475002" id="Fill-30" fill="#DB021B"></path>
                <path d="M40.111,3.34350002 C40.111,1.52225006 41.5978,0.051 43.4323599,0.051 C45.2681798,0.051 46.7524599,1.52225006 46.7524599,3.34350002 C46.7524599,5.1622504 45.2681798,6.6385001 43.4323599,6.6385001 C41.5978,6.6385001 40.111,5.1622504 40.111,3.34350002" id="Fill-31" fill="#DB021B"></path>
                <path d="M4.20502021,40.0884994 L4.20502021,40.0884994 C2.37927999,40.0884994 0.895,38.6210006 0.895,36.8022502 L0.895,11.4184998 C0.895,9.60475 2.37927999,8.136 4.20502021,8.136 C6.03831961,8.136 7.52260019,9.60475 7.52260019,11.4184998 L7.52260019,40.0884994 L4.20502021,40.0884994 Z" id="Fill-32" fill="#DB021B"></path>
                <path d="M9.31,40.0884994 L9.31,40.0884994 L9.31,11.4184998 C9.31,9.60475 10.79428,8.136 12.6200202,8.136 C14.4520598,8.136 15.93256,9.60475 15.93256,11.4184998 L15.93256,40.0884994 L15.9413801,40.0884994 C14.3701597,40.0884994 14.0085402,38.2872508 14.0085402,36.5272487 L14.0123201,36.5272487 C14.0123201,38.3422511 12.5305601,40.0884994 10.69978,40.0884994 L9.3163,40.0884994" id="Fill-33" fill="#DB021B"></path>
                <path d="M32.2510601,8.132 L32.2510601,8.132 C34.0742799,8.132 35.5623399,9.60449997 35.5623399,11.422 L35.5623399,36.805748 C35.5623399,38.6182499 34.0742799,40.0882511 32.2510601,40.0882511 C30.42154,40.0882511 28.936,38.6182499 28.936,36.805748 L28.936,8.132 L32.2510601,8.132 Z" id="Fill-34" fill="#DB021B"></path>
                <path d="M27.1418198,8.132 L27.1493801,8.132 L27.1493801,36.805748 C27.1493801,38.6182499 25.6651,40.0882511 23.8381001,40.0882511 C22.00858,40.0882511 20.52052,38.6182499 20.52052,36.805748 L20.52052,8.132 L20.518,8.132 C22.08418,8.13575 22.4483199,9.9382501 22.4483199,11.6982498 L22.44328,11.6982498 C22.44328,9.88325003 23.9275602,8.132 25.75708,8.132 L27.1418198,8.132 Z" id="Fill-35" fill="#DB021B"></path>
                <path d="M78.47628,40.0882511 L78.47628,40.0882511 C76.64928,40.0882511 75.165,38.6182499 75.165,36.802002 L75.165,11.4182499 C75.165,9.60449997 76.64928,8.132 78.47628,8.132 C80.3058,8.132 81.7913399,9.60449997 81.7913399,11.4182499 L81.7913399,40.0882511 L78.47628,40.0882511 Z" id="Fill-36" fill="#28A1D7"></path>
                <path d="M83.58604,40.0882511 L83.581,40.0882511 L83.581,11.4182499 C83.581,9.60449997 85.05898,8.132 86.8935398,8.132 C88.7205397,8.132 90.20356,9.60449997 90.20356,11.4182499 L90.20356,40.0882511 L90.2086002,40.0882511 C88.6461999,40.0882511 88.2782799,38.2845002 88.2782799,36.5232487 L88.2845799,36.5232487 C88.2845799,38.3382511 86.7990398,40.0882511 84.96952,40.0882511 L83.58604,40.0882511 Z" id="Fill-37" fill="#28A1D7"></path>
                <path d="M52.051,36.7997499 C52.051,34.9772499 53.53654,33.501 55.3723599,33.501 C57.2043999,33.501 58.6924599,34.9772499 58.6924599,36.7997499 C58.6924599,38.61475 57.2043999,40.0885001 55.3723599,40.0885001 C53.53654,40.0885001 52.051,38.61475 52.051,36.7997499" id="Fill-38" fill="#28A1D7"></path>
            </g>
        </g>
    </g>
</svg>